<?xml version="1.0" encoding="UTF-8"?>
<!DOCTYPE svg PUBLIC "-//W3C//DTD SVG 1.1//EN" "http://www.w3.org/Graphics/SVG/1.1/DTD/svg11.dtd">
<!-- Creator: CorelDRAW 2019 (64-Bit) -->
<svg xmlns="http://www.w3.org/2000/svg" xml:space="preserve" width="44.4501mm" height="44.4501mm" version="1.1" style="shape-rendering:geometricPrecision; text-rendering:geometricPrecision; image-rendering:optimizeQuality; fill-rule:evenodd; clip-rule:evenodd"
viewBox="0 0 6.8638 6.8638"
 xmlns:xlink="http://www.w3.org/1999/xlink"
 xmlns:xodm="http://www.corel.com/coreldraw/odm/2003">
 <defs>
  <style type="text/css">
   <![CDATA[
    .fil2 {fill:none}
    .fil1 {fill:#3B4EA1}
    .fil3 {fill:white}
    .fil0 {fill:url(#id1)}
   ]]>
  </style>
    <clipPath id="id0">
     <path d="M-0 0l6.8638 0 0 6.8638 -6.8638 0 0 -6.8638z"/>
    </clipPath>
  <radialGradient id="id1" gradientUnits="userSpaceOnUse" gradientTransform="matrix(1 -0 -0 1 0 0)" cx="3.4319" cy="3.4319" r="3.4319" fx="3.4319" fy="3.4319">
   <stop offset="0" style="stop-opacity:1; stop-color:#3B4EA1"/>
   <stop offset="1" style="stop-opacity:1; stop-color:#283984"/>
  </radialGradient>
 </defs>
 <g id="Слой_x0020_1">
  <metadata id="CorelCorpID_0Corel-Layer"/>
  <g id="_2281762203472">
   <polygon class="fil0" points="-0,0 6.8638,0 6.8638,6.8638 -0,6.8638 "/>
   <g style="clip-path:url(#id0)">
    <g>
     <g>
      <path id="1" class="fil1" d="M7.4691 -2.4553c-0.1771,0.1355 -0.3493,0.4871 -0.5068,0.7064l-2.4868 3.6539c-0.2055,0.3042 -0.8929,1.2096 -0.974,1.5268 0.5118,0.2828 2.4525,1.2552 3.0627,1.3083 -0.143,-0.2229 -1.3071,-1.3947 -1.5313,-1.7443 0.0802,-0.3594 0.4188,-0.9266 0.5862,-1.3503 0.3096,-0.7834 1.1289,-2.3637 1.5515,-3.395 0.1102,-0.2689 0.2345,-0.419 0.2985,-0.7058z"/>
      <path class="fil1" d="M-0.6052 9.1736c0.1946,-0.1361 0.8218,-1.1038 0.989,-1.3658 0.3187,-0.4993 0.6343,-0.9664 0.9795,-1.4483 0.1859,-0.2595 1.8585,-2.6506 1.9294,-2.9277 -0.2196,-0.0534 -2.0571,-1.0636 -3.0626,-1.3082 0.1197,0.1866 0.2227,0.2496 0.3582,0.4254 0.4256,0.552 0.9445,0.9624 1.1731,1.3189 -0.0996,0.4466 -2.3361,4.9236 -2.3666,5.3057z"/>
      <path class="fil1" d="M2.1094 6.7752c0.1482,-0.1036 1.5007,-1.4068 1.6705,-1.6717l5.29 2.6165c-0.1373,-0.1957 -3.0776,-2.2851 -3.4909,-2.6054 -0.3385,-0.2624 -1.8524,-1.5057 -2.2168,-1.5374 -0.0533,0.239 -0.9982,2.0566 -1.2529,3.1979z"/>
      <path class="fil1" d="M-2.2062 -0.7836c0.1197,0.1707 0.4637,0.3965 0.6685,0.5376l4.9 3.6052c0.322,-0.6355 1.2106,-2.667 1.2529,-3.1979l-1.6705 1.599c-0.3825,-0.2113 -0.8709,-0.4783 -1.2627,-0.6439l-3.8882 -1.8999z"/>
      <polygon class="fil1" points="-0.6748,9.319 -0.6052,9.1736 "/>
     </g>
    </g>
   </g>
   <polygon class="fil2" points="-0,0 6.8638,0 6.8638,6.8638 -0,6.8638 "/>
   <g>
    <path class="fil3" d="M5.1872 0.8723c-0.077,0.0589 -0.1519,0.2118 -0.2204,0.3071l-1.0812 1.5887c-0.0893,0.1323 -0.3882,0.5259 -0.4235,0.6638 0.2225,0.1229 1.0663,0.5458 1.3316,0.5688 -0.0622,-0.0969 -0.5683,-0.6064 -0.6658,-0.7584 0.0349,-0.1563 0.1821,-0.4029 0.2549,-0.5871 0.1346,-0.3406 0.4908,-1.0277 0.6745,-1.4761 0.0479,-0.1169 0.102,-0.1822 0.1298,-0.3069z"/>
    <path class="fil3" d="M1.6766 5.9283c0.0846,-0.0592 0.3573,-0.4799 0.43,-0.5938 0.1386,-0.2171 0.2758,-0.4202 0.4259,-0.6297 0.0808,-0.1128 0.808,-1.1524 0.8388,-1.2729 -0.0955,-0.0232 -0.8944,-0.4625 -1.3316,-0.5688 0.052,0.0811 0.0968,0.1085 0.1558,0.185 0.185,0.24 0.4107,0.4185 0.51,0.5734 -0.0433,0.1942 -1.0157,2.1407 -1.0289,2.3068z"/>
    <path class="fil3" d="M2.8569 4.8855c0.0644,-0.0451 0.6525,-0.6117 0.7263,-0.7268l2.3 1.1376c-0.0597,-0.0851 -1.3381,-0.9935 -1.5178,-1.1328 -0.1472,-0.1141 -0.8054,-0.6546 -0.9638,-0.6684 -0.0232,0.1039 -0.434,0.8942 -0.5447,1.3904z"/>
    <path class="fil3" d="M0.9806 1.5991c0.0521,0.0742 0.2016,0.1724 0.2907,0.2337l2.1304 1.5675c0.14,-0.2763 0.5263,-1.1596 0.5447,-1.3904l-0.7263 0.6952c-0.1663,-0.0919 -0.3787,-0.208 -0.549,-0.28l-1.6905 -0.826z"/>
    <polygon class="fil3" points="1.6464,5.9915 1.6766,5.9283 "/>
   </g>
  </g>
 </g>
</svg>
