<?xml version="1.0" encoding="UTF-8"?>
<!DOCTYPE svg PUBLIC "-//W3C//DTD SVG 1.1//EN" "http://www.w3.org/Graphics/SVG/1.1/DTD/svg11.dtd">
<!-- Creator: CorelDRAW 2019 (64-Bit) -->
<svg xmlns="http://www.w3.org/2000/svg" xml:space="preserve" width="1.24999in" height="1.30521in" version="1.1" style="shape-rendering:geometricPrecision; text-rendering:geometricPrecision; image-rendering:optimizeQuality; fill-rule:evenodd; clip-rule:evenodd"
viewBox="0 0 144.23 150.6"
 xmlns:xlink="http://www.w3.org/1999/xlink"
 xmlns:xodm="http://www.corel.com/coreldraw/odm/2003">
 <defs>
  <style type="text/css">
   <![CDATA[
    .fil0 {fill:white}
   ]]>
  </style>
 </defs>
 <g id="Слой_x0020_1">
  <metadata id="CorelCorpID_0Corel-Layer"/>
  <g id="_3021835517168">
   <path class="fil0" d="M123.76 0c-2.27,1.73 -4.47,6.23 -6.48,9.04l-31.81 46.74c-2.63,3.89 -11.42,15.47 -12.46,19.53 6.55,3.62 31.37,16.06 39.17,16.73 -1.83,-2.85 -16.72,-17.84 -19.59,-22.31 1.03,-4.6 5.36,-11.85 7.5,-17.27 3.96,-10.02 14.44,-30.23 19.84,-43.42 1.41,-3.44 3,-5.36 3.82,-9.03z"/>
   <path class="fil0" d="M20.48 148.74c2.49,-1.74 10.51,-14.12 12.65,-17.47 4.08,-6.39 8.11,-12.36 12.53,-18.53 2.38,-3.32 23.77,-33.9 24.68,-37.45 -2.81,-0.68 -26.31,-13.61 -39.17,-16.73 1.53,2.39 2.85,3.19 4.58,5.44 5.44,7.06 12.08,12.31 15,16.87 -1.27,5.71 -29.88,62.98 -30.27,67.86z"/>
   <path class="fil0" d="M55.2 118.07c1.9,-1.33 19.2,-17.99 21.37,-21.38l67.66 33.47c-1.76,-2.5 -39.37,-29.23 -44.65,-33.33 -4.33,-3.36 -23.69,-19.26 -28.35,-19.66 -0.68,3.06 -12.77,26.31 -16.03,40.91z"/>
   <path class="fil0" d="M-0 21.38c1.53,2.18 5.93,5.07 8.55,6.88l62.68 46.11c4.12,-8.13 15.48,-34.11 16.03,-40.9l-21.37 20.45c-4.89,-2.7 -11.14,-6.12 -16.15,-8.24l-49.73 -24.3z"/>
   <polygon class="fil0" points="19.59,150.6 20.48,148.74 "/>
  </g>
 </g>
</svg>
