<?xml version="1.0" encoding="UTF-8"?>
<!DOCTYPE svg PUBLIC "-//W3C//DTD SVG 1.1//EN" "http://www.w3.org/Graphics/SVG/1.1/DTD/svg11.dtd">
<!-- Creator: CorelDRAW 2019 (64-Bit) -->
<svg xmlns="http://www.w3.org/2000/svg" xml:space="preserve" width="73.3016mm" height="17.8152mm" version="1.1" style="shape-rendering:geometricPrecision; text-rendering:geometricPrecision; image-rendering:optimizeQuality; fill-rule:evenodd; clip-rule:evenodd"
viewBox="0 0 6408.98 1557.64"
 xmlns:xlink="http://www.w3.org/1999/xlink"
 xmlns:xodm="http://www.corel.com/coreldraw/odm/2003">
 <defs>
  <style type="text/css">
   <![CDATA[
    .fil0 {fill:white}
   ]]>
  </style>
 </defs>
 <g id="Слой_x0020_1">
  <metadata id="CorelCorpID_0Corel-Layer"/>
  <g id="_2318574799088">
   <path class="fil0" d="M1279.96 0c-23.43,17.92 -46.22,64.44 -67.05,93.45l-328.98 483.38c-27.18,40.25 -118.12,160.03 -128.85,201.99 67.71,37.41 324.45,166.06 405.16,173.07 -18.91,-29.49 -172.92,-184.51 -202.58,-230.76 10.61,-47.55 55.41,-122.58 77.55,-178.63 40.96,-103.63 149.34,-312.7 205.25,-449.13 14.58,-35.57 31.03,-55.43 39.49,-93.37z"/>
   <path class="fil0" d="M211.79 1538.41c25.75,-18 108.73,-146.02 130.84,-180.68 42.16,-66.06 83.91,-127.85 129.58,-191.6 24.59,-34.33 245.86,-350.65 255.24,-387.31 -29.05,-7.06 -272.14,-140.71 -405.16,-173.07 15.83,24.69 29.46,33.02 47.39,56.28 56.3,73.02 124.95,127.33 155.19,174.48 -13.18,59.09 -309.06,651.35 -313.09,701.9z"/>
   <path class="fil0" d="M570.91 1221.12c19.61,-13.71 198.53,-186.11 221,-221.15l699.83 346.15c-18.17,-25.89 -407.15,-302.31 -461.82,-344.68 -44.78,-34.71 -245.06,-199.19 -293.26,-203.39 -7.06,31.62 -132.06,272.07 -165.76,423.07z"/>
   <path class="fil0" d="M-0 221.14c15.84,22.58 61.35,52.45 88.44,71.11l648.23 476.95c42.61,-84.08 160.15,-352.82 165.75,-423.06l-221 211.54c-50.61,-27.96 -115.22,-63.28 -167.04,-85.19l-514.38 -251.34z"/>
   <path class="fil0" d="M4640.99 538.44l-36.84 0 0 374.99 36.84 0c0,-227.42 -38.49,-346.15 119.7,-346.15 70.17,0 83.44,68.37 83.22,143.87 -0.44,152.7 -21.68,197.22 36.49,202.28 0,-65.88 -5.88,-168.39 0.82,-229.91 14.78,-135.73 169.39,-146.81 202.43,-68.86 25.37,59.87 17.75,224.42 17.75,298.77l36.84 0c0,-177.85 34.15,-384.61 -138.13,-384.61 -77.89,0 -85.33,36.84 -128.92,67.31 -14.77,-11.31 -84.7,-111.79 -195.85,-48.35 -24.02,13.71 -30.58,35.87 -34.35,-9.35z"/>
   <path class="fil0" d="M5524.98 884.59l-46.04 0c-105.99,0 -121.85,-307.69 36.84,-307.69l119.7 0c0,86.75 23.05,307.69 -110.5,307.69zm110.5 -346.15l-110.5 0c-218.07,0 -214.29,394.22 -18.41,394.22 56.6,0 94.43,-43.18 128.91,-67.3l0 48.07 36.84 0 0 -586.52 -36.84 0 0 211.53z"/>
   <path class="fil0" d="M2771.71 884.59c-51.75,0 -72.89,5.54 -102.09,-37.63 -57.53,-85.07 -28.75,-270.05 102.09,-270.05l110.5 0c0,88.05 17.41,307.69 -110.5,307.69zm-165.76 -163.46c0,61.01 0.08,101.13 39.14,151.43 103.37,133.09 201.45,8.11 237.11,-16.81l0 57.69c25.99,-2.26 36.83,0.23 36.83,-28.84l0 -317.3c0,-43.54 -47.23,-28.84 -147.32,-28.84 -91.04,0 -165.76,88.24 -165.76,182.69z"/>
   <path class="fil0" d="M2081.08 884.59c-92.24,0 -128.92,-28.03 -128.92,-153.84 0,-176.33 143.07,-153.85 239.42,-153.85 0,88.05 17.41,307.69 -110.5,307.69zm-165.76 -163.46c0,114.66 52.84,211.53 138.13,211.53 68.65,0 100.02,-50.27 138.13,-76.91l0 57.69c25.99,-2.26 36.84,0.23 36.84,-28.84l0 -317.3c0,-43.54 -47.23,-28.84 -147.33,-28.84 -91.04,0 -165.76,88.24 -165.76,182.69z"/>
   <path class="fil0" d="M1620.67 913.43l36.83 0 0 -153.84c0,-36.77 -2.82,-3.51 9.21,-28.84 86.24,24.04 110.13,180.53 202.59,182.68 -20.26,-39.97 -50.61,-74.55 -80.56,-108.19l-85.19 -103.35 149.44 -161.26c-61.11,-2.81 -41.43,-4.59 -105.7,62.71 -30.54,31.98 -55.28,64.81 -89.79,88.95l0 -365.37 -36.83 0 0 586.52z"/>
   <path class="fil0" d="M3655.7 769.2l0 -67.31c0,-45.11 52.91,-124.99 92.08,-124.99 57.07,0 90.45,-9.13 129.58,47.38 36.41,52.56 42.88,175.5 -8.07,223.73 -84.26,79.77 -213.6,20.8 -213.6,-78.81zm-36.84 -57.69c0,133.08 40.55,211.54 174.96,211.54 215.21,0 175.92,-384.61 9.21,-384.61l-46.04 0c-70.68,0 -138.13,95.72 -138.13,173.07z"/>
   <path class="fil0" d="M5773.61 730.75c0,-64.26 47.94,-153.85 110.5,-153.85l55.26 0c39.16,0 92.08,79.89 92.08,124.99 0,82.16 -8.77,182.69 -128.92,182.69 -47.98,0 -71.77,-15.61 -94.92,-45.12 -18.21,-23.22 -34,-72.02 -34,-108.72zm119.71 192.3c265.05,0 190.3,-384.61 36.83,-384.61l-46.04 0c-78.31,0 -148.09,107.6 -145.86,191.3 2.63,99.17 54.8,193.31 155.08,193.31z"/>
   <path class="fil0" d="M4327.9 923.05c73.37,0 67.79,4.28 128.92,-38.46l0 28.84 36.84 0 0 -374.99 -36.84 0 0 269.22c0,63.69 -150.47,125.48 -192.56,28 -11.85,-27.45 -10.42,-64.96 -10.15,-104.78 0.27,-38.76 0.03,-77.33 0.67,-116.08 0.98,-59.5 11.54,-72.1 -37.38,-76.36 0,141.71 -37.6,384.61 110.5,384.61z"/>
   <path class="fil0" d="M3047.95 586.52c-0.91,-42.64 2.93,-44.62 -36.84,-48.08l0 374.99c51.15,-4.44 38.17,-24.04 37.16,-86.2 -1.74,-106.2 -15.54,-164.68 33.59,-214.92 20.25,-20.71 49.88,-45.03 85.79,-45.03 150.25,0 119.71,188.57 119.71,346.15 50.4,-4.38 36.83,-5.12 36.83,-173.07 0,-105.4 -35.22,-211.54 -147.32,-211.54 -60.15,0 -92.38,32.14 -128.92,57.7z"/>
   <path class="fil0" d="M2283.66 576.9l211.79 0c-33.79,66.69 -192.06,295.37 -202.58,336.53l212.68 0.93c47.51,-1.07 35.32,6.97 54.36,-20.15 -20.92,-29.82 -42.54,-20.03 -91.92,-19.4 -36.84,0.46 -73.8,0.17 -110.66,0.17 18.24,-71.3 188.51,-275.59 193.38,-336.53 -49.11,0 -98.24,0.16 -147.34,-0.01 -60.01,-0.21 -119.7,-20.13 -119.7,38.47z"/>
   <path class="fil0" d="M3443.91 499.98l0 38.46c-60.29,0 -40.95,-1.14 -55.25,19.24 13.95,20.95 -5.08,19.23 55.25,19.23l0 336.53 36.84 0 0 -336.53c89.23,0 66.39,4.26 82.87,-19.23 -15.79,-23.73 6.68,-19.24 -82.87,-19.24 0,-266.92 74.96,-112.2 82.87,-211.53 -96.66,2.25 -119.7,70.9 -119.7,173.06z"/>
   <path class="fil0" d="M6114.32 721.13c0,152.02 131.44,227.88 260.11,194.69 38.76,-10 33.59,-5.42 34.55,-50.46 -95.14,47.67 -291.56,33 -248.14,-191.14 33.78,-174.32 181.84,-48.31 229.73,-116.55 -19.31,-29 -9.13,-19.24 -119.71,-19.24 -100.18,0 -156.54,94.63 -156.54,182.69z"/>
   <path class="fil0" d="M4014.82 567.28l0 317.3c0,29.07 10.84,26.59 36.84,28.84 0,-189.74 -17.01,-236.96 78.23,-322.16 26.26,-23.48 19.65,-0.42 23.06,-43.22 -38.69,0.9 -54.4,12 -80.41,41.03l-20.88 26.27 0 -76.92c-25.99,2.26 -36.84,-0.22 -36.84,28.84z"/>
   <path class="fil0" d="M5257.94 913.43l27.63 0 0 -48.07 -55.26 0c0.66,30.81 -3,48.07 27.63,48.07z"/>
   <polygon class="fil0" points="202.58,1557.64 211.79,1538.41 "/>
  </g>
 </g>
</svg>
