<?xml version="1.0" encoding="UTF-8"?>
<!DOCTYPE svg PUBLIC "-//W3C//DTD SVG 1.1//EN" "http://www.w3.org/Graphics/SVG/1.1/DTD/svg11.dtd">
<!-- Creator: CorelDRAW 2019 (64-Bit) -->
<svg xmlns="http://www.w3.org/2000/svg" xml:space="preserve" width="92.6469mm" height="22.5169mm" version="1.1" style="shape-rendering:geometricPrecision; text-rendering:geometricPrecision; image-rendering:optimizeQuality; fill-rule:evenodd; clip-rule:evenodd"
viewBox="0 0 5413.38 1315.67"
 xmlns:xlink="http://www.w3.org/1999/xlink"
 xmlns:xodm="http://www.corel.com/coreldraw/odm/2003">
 <defs>
  <style type="text/css">
   <![CDATA[
    .fil2 {fill:black}
    .fil1 {fill:#283984}
    .fil0 {fill:#CF2826}
   ]]>
  </style>
 </defs>
 <g id="Слой_x0020_1">
  <metadata id="CorelCorpID_0Corel-Layer"/>
  <g id="_2318566699088">
   <path class="fil0" d="M1081.12 0c-19.79,15.14 -39.04,54.43 -56.63,78.93l-277.88 408.29c-22.96,33.99 -99.77,135.17 -108.83,170.61 57.19,31.59 274.04,140.26 342.23,146.19 -15.97,-24.91 -146.06,-155.85 -171.11,-194.92 8.96,-40.16 46.8,-103.54 65.51,-150.88 34.6,-87.54 126.15,-264.13 173.36,-379.36 12.31,-30.04 26.21,-46.81 33.36,-78.86z"/>
   <path class="fil1" d="M178.89 1299.43c21.75,-15.21 91.83,-123.34 110.51,-152.61 35.61,-55.8 70.88,-107.99 109.46,-161.84 20.77,-29 207.67,-296.18 215.59,-327.14 -24.54,-5.97 -229.86,-118.85 -342.23,-146.19 13.37,20.85 24.88,27.89 40.03,47.54 47.55,61.67 105.54,107.54 131.08,147.37 -11.14,49.91 -261.04,550.17 -264.45,592.87z"/>
   <path class="fil1" d="M482.22 1031.42c16.56,-11.58 167.69,-157.2 186.67,-186.8l591.12 292.37c-15.34,-21.86 -343.9,-255.35 -390.08,-291.13 -37.83,-29.31 -206.99,-168.25 -247.7,-171.78 -5.96,26.7 -111.54,229.8 -140,357.34z"/>
   <path class="fil0" d="M-0 186.79c13.38,19.07 51.82,44.3 74.7,60.07l547.53 402.86c35.99,-71.02 135.27,-298.01 140,-357.34l-186.67 178.67c-42.74,-23.61 -97.32,-53.45 -141.09,-71.96l-434.47 -212.29z"/>
   <path class="fil2" d="M3920.03 454.8l-31.11 0 0 316.74 31.11 0c0,-192.1 -32.5,-292.37 101.11,-292.37 59.28,0 70.48,57.75 70.29,121.52 -0.37,128.98 -18.31,166.58 30.82,170.86 0,-55.64 -4.96,-142.23 0.7,-194.19 12.48,-114.65 143.08,-124.01 170.98,-58.17 21.43,50.57 14.99,189.56 14.99,252.35l31.11 0c0,-150.22 28.85,-324.86 -116.67,-324.86 -65.79,0 -72.08,31.11 -108.89,56.85 -12.47,-9.55 -71.54,-94.42 -165.43,-40.84 -20.29,11.58 -25.83,30.3 -29.02,-7.89z"/>
   <path class="fil2" d="M4666.71 747.17l-38.89 0c-89.52,0 -102.92,-259.89 31.11,-259.89l101.11 0c0,73.27 19.46,259.89 -93.34,259.89zm93.34 -292.37l-93.34 0c-184.2,0 -181,332.98 -15.55,332.98 47.81,0 79.76,-36.48 108.89,-56.85l0 40.61 31.11 0 0 -495.41 -31.11 0 0 178.67z"/>
   <path class="fil2" d="M2341.14 747.17c-43.71,0 -61.57,4.69 -86.23,-31.79 -48.58,-71.85 -24.28,-228.1 86.23,-228.1l93.33 0c0,74.37 14.71,259.89 -93.33,259.89zm-140 -138.06c0,51.54 0.06,85.42 33.07,127.9 87.31,112.42 170.15,6.86 200.27,-14.2l0 48.73c21.96,-1.91 31.11,0.19 31.11,-24.37l0 -268.01c0,-36.78 -39.9,-24.37 -124.44,-24.37 -76.89,0 -140,74.53 -140,154.31z"/>
   <path class="fil2" d="M1757.79 747.17c-77.91,0 -108.88,-23.68 -108.88,-129.94 0,-148.93 120.83,-129.94 202.22,-129.94 0,74.37 14.71,259.89 -93.34,259.89zm-140 -138.06c0,96.85 44.63,178.67 116.67,178.67 57.99,0 84.48,-42.47 116.67,-64.97l0 48.73c21.96,-1.91 31.11,0.19 31.11,-24.37l0 -268.01c0,-36.78 -39.9,-24.37 -124.45,-24.37 -76.89,0 -140,74.53 -140,154.31z"/>
   <path class="fil2" d="M1368.9 771.54l31.11 0 0 -129.94c0,-31.05 -2.38,-2.96 7.78,-24.37 72.85,20.31 93.02,152.49 171.11,154.31 -17.1,-33.76 -42.74,-62.97 -68.04,-91.38l-71.96 -87.29 126.23 -136.21c-51.62,-2.37 -35,-3.87 -89.28,52.97 -25.8,27.01 -46.69,54.74 -75.84,75.12l0 -308.61 -31.11 0 0 495.41z"/>
   <path class="fil2" d="M3087.81 649.72l0 -56.85c0,-38.1 44.7,-105.58 77.78,-105.58 48.2,0 76.4,-7.71 109.45,40.01 30.75,44.4 36.22,148.25 -6.81,188.98 -71.17,67.38 -180.42,17.58 -180.42,-66.56zm-31.11 -48.73c0,112.41 34.25,178.67 147.78,178.67 181.78,0 148.59,-324.86 7.78,-324.86l-38.89 0c-59.7,0 -116.67,80.85 -116.67,146.19z"/>
   <path class="fil2" d="M4876.71 617.23c0,-54.28 40.49,-129.94 93.33,-129.94l46.67 0c33.08,0 77.78,67.48 77.78,105.58 0,69.4 -7.4,154.31 -108.89,154.31 -40.53,0 -60.63,-13.18 -80.17,-38.11 -15.38,-19.61 -28.72,-60.83 -28.72,-91.83zm101.11 162.43c223.88,0 160.74,-324.86 31.11,-324.86l-38.89 0c-66.14,0 -125.08,90.89 -123.2,161.59 2.22,83.76 46.28,163.27 130.98,163.27z"/>
   <path class="fil2" d="M3655.59 779.66c61.97,0 57.25,3.62 108.89,-32.49l0 24.37 31.11 0 0 -316.74 -31.11 0 0 227.4c0,53.8 -127.1,105.99 -162.65,23.64 -10.01,-23.18 -8.81,-54.87 -8.57,-88.5 0.22,-32.73 0.02,-65.31 0.56,-98.05 0.83,-50.26 9.75,-60.9 -31.56,-64.5 0,119.7 -31.76,324.86 93.33,324.86z"/>
   <path class="fil2" d="M2574.47 495.41c-0.77,-36.02 2.48,-37.69 -31.11,-40.61l0 316.74c43.2,-3.76 32.24,-20.3 31.38,-72.81 -1.47,-89.71 -13.12,-139.09 28.37,-181.53 17.1,-17.49 42.13,-38.03 72.47,-38.03 126.91,0 101.11,159.28 101.11,292.37 42.57,-3.7 31.11,-4.33 31.11,-146.19 0,-89.03 -29.75,-178.67 -124.44,-178.67 -50.81,0 -78.02,27.15 -108.89,48.73z"/>
   <path class="fil2" d="M1928.91 487.28l178.88 0c-28.54,56.33 -162.22,249.48 -171.11,284.25l179.65 0.78c40.12,-0.9 29.83,5.88 45.91,-17.03 -17.68,-25.19 -35.93,-16.92 -77.64,-16.39 -31.11,0.4 -62.34,0.15 -93.47,0.15 15.4,-60.22 159.23,-232.77 163.34,-284.25 -41.48,0 -82.98,0.13 -124.46,-0.01 -50.68,-0.17 -101.1,-17 -101.1,32.5z"/>
   <path class="fil2" d="M2908.92 422.31l0 32.49c-50.92,0 -34.59,-0.96 -46.67,16.24 11.78,17.7 -4.29,16.24 46.67,16.24l0 284.25 31.11 0 0 -284.25c75.37,0 56.08,3.6 70,-16.24 -13.34,-20.04 5.64,-16.24 -70,-16.24 0,-225.45 63.32,-94.77 70,-178.67 -81.64,1.9 -101.11,59.89 -101.11,146.18z"/>
   <path class="fil2" d="M5164.49 609.11c0,128.41 111.02,192.48 219.71,164.44 32.74,-8.44 28.37,-4.57 29.18,-42.62 -80.36,40.26 -246.27,27.88 -209.59,-161.44 28.52,-147.23 153.59,-40.8 194.04,-98.44 -16.3,-24.49 -7.71,-16.24 -101.11,-16.24 -84.62,0 -132.22,79.93 -132.22,154.31z"/>
   <path class="fil2" d="M3391.15 479.16l0 268.01c0,24.55 9.15,22.45 31.11,24.37 0,-160.27 -14.37,-200.15 66.07,-272.11 22.17,-19.84 16.61,-0.36 19.48,-36.51 -32.68,0.76 -45.95,10.13 -67.92,34.65l-17.63 22.2 0 -64.97c-21.96,1.91 -31.11,-0.19 -31.11,24.37z"/>
   <path class="fil2" d="M4441.15 771.54l23.34 0 0 -40.61 -46.67 0c0.56,26.02 -2.54,40.61 23.33,40.61z"/>
   <polygon class="fil1" points="171.11,1315.67 178.89,1299.43 "/>
  </g>
 </g>
</svg>
